<svg width="30" height="30" viewBox="0 0 30 30" fill="none" xmlns="http://www.w3.org/2000/svg">
<g clip-path="url(#clip0_33_11361)">
<path d="M25.8333 4.765H20.8333V8.09833H24.1667C24.1667 8.09833 25.8333 8.09833 25.8333 9.765V19.765C25.8333 21.4317 24.1667 21.4317 24.1667 21.4317H20.8333V24.765H25.8333C27.6717 24.765 29.1667 23.27 29.1667 21.4317V8.09833C29.1667 6.26 27.6717 4.765 25.8333 4.765Z" fill="#FFAC33"/>
<path d="M22.5 5H2.5V26.6667C2.5 27.5507 2.85119 28.3986 3.47631 29.0237C4.10143 29.6488 4.94928 30 5.83333 30H19.1667C20.0507 30 20.8986 29.6488 21.5237 29.0237C22.1488 28.3986 22.5 27.5507 22.5 26.6667V5Z" fill="#FFCC4D"/>
<path d="M7.08333 26.6667C6.86232 26.6667 6.65036 26.5789 6.49408 26.4226C6.3378 26.2663 6.25 26.0543 6.25 25.8333V12.5C6.25 12.279 6.3378 12.067 6.49408 11.9107C6.65036 11.7545 6.86232 11.6667 7.08333 11.6667C7.30435 11.6667 7.51631 11.7545 7.67259 11.9107C7.82887 12.067 7.91667 12.279 7.91667 12.5V25.8333C7.91667 26.0543 7.82887 26.2663 7.67259 26.4226C7.51631 26.5789 7.30435 26.6667 7.08333 26.6667ZM12.5 26.6667C12.279 26.6667 12.067 26.5789 11.9107 26.4226C11.7545 26.2663 11.6667 26.0543 11.6667 25.8333V12.5C11.6667 12.279 11.7545 12.067 11.9107 11.9107C12.067 11.7545 12.279 11.6667 12.5 11.6667C12.721 11.6667 12.933 11.7545 13.0893 11.9107C13.2455 12.067 13.3333 12.279 13.3333 12.5V25.8333C13.3333 26.0543 13.2455 26.2663 13.0893 26.4226C12.933 26.5789 12.721 26.6667 12.5 26.6667ZM17.9167 26.6667C17.6957 26.6667 17.4837 26.5789 17.3274 26.4226C17.1711 26.2663 17.0833 26.0543 17.0833 25.8333V12.5C17.0833 12.279 17.1711 12.067 17.3274 11.9107C17.4837 11.7545 17.6957 11.6667 17.9167 11.6667C18.1377 11.6667 18.3496 11.7545 18.5059 11.9107C18.6622 12.067 18.75 12.279 18.75 12.5V25.8333C18.75 26.0543 18.6622 26.2663 18.5059 26.4226C18.3496 26.5789 18.1377 26.6667 17.9167 26.6667Z" fill="#F4900C"/>
<path d="M2.5 4.16667V10.3708C2.99167 10.6575 3.55667 10.8333 4.16667 10.8333C4.82878 10.8328 5.47573 10.635 6.02502 10.2653C6.57431 9.89561 7.00105 9.3707 7.25083 8.7575C7.5425 9.00917 7.91833 9.16667 8.33333 9.16667C8.8975 9.16667 9.39417 8.885 9.69583 8.45583C9.99554 8.9284 10.4097 9.31767 10.8999 9.5876C11.39 9.85753 11.9404 9.99937 12.5 10C13.0138 9.99887 13.5204 9.87837 13.9797 9.64799C14.439 9.41762 14.8385 9.08367 15.1467 8.6725C15.2986 9.06281 15.5647 9.39826 15.9102 9.63506C16.2557 9.87187 16.6645 9.99905 17.0833 10C17.8742 10 18.5542 9.55417 18.9067 8.905L19.0292 8.60417C19.4534 8.84109 19.9307 8.96693 20.4167 8.97C21.2342 8.97 21.9708 8.63167 22.5 8.09V4.16667H2.5Z" fill="#FFAC33"/>
<path d="M20 0H3.33334C2.6703 0 2.03442 0.263392 1.56558 0.732233C1.09674 1.20107 0.833344 1.83696 0.833344 2.5V5.83333C0.834966 6.60495 1.10423 7.3521 1.59522 7.94735C2.0862 8.5426 2.76848 8.94908 3.5257 9.09745C4.28291 9.24583 5.06815 9.12691 5.74747 8.76097C6.4268 8.39504 6.95813 7.80477 7.25084 7.09083C7.54251 7.3425 7.91834 7.5 8.33334 7.5C8.89751 7.5 9.39418 7.21833 9.69584 6.78917C9.99555 7.26173 10.4097 7.651 10.8999 7.92093C11.39 8.19086 11.9404 8.33271 12.5 8.33333C13.0138 8.3322 13.5204 8.2117 13.9797 7.98132C14.439 7.75095 14.8385 7.417 15.1467 7.00583C15.2986 7.39614 15.5647 7.73159 15.9102 7.9684C16.2557 8.20521 16.6645 8.33238 17.0833 8.33333C17.8742 8.33333 18.5542 7.8875 18.9067 7.23833C19.2383 7.40083 19.6058 7.5 20 7.5C20.6631 7.5 21.2989 7.23661 21.7678 6.76777C22.2366 6.29893 22.5 5.66304 22.5 5V2.5C22.5 1.83696 22.2366 1.20107 21.7678 0.732233C21.2989 0.263392 20.6631 0 20 0Z" fill="#EEEEEE"/>
</g>
<defs>
<clipPath id="clip0_33_11361">
<rect width="30" height="30" fill="white"/>
</clipPath>
</defs>
</svg>
