<svg width="45" height="48" viewBox="0 0 45 48" fill="none" xmlns="http://www.w3.org/2000/svg">
<g clip-path="url(#clip0_32_10881)">
<path d="M37.1263 18.9509C37.1263 18.9509 37.7669 17.7317 38.621 18.2618C39.4751 18.7654 39.0747 20.0376 38.274 21.1508C37.4733 22.264 34.6708 23.4037 32.8559 27.777C31.0409 32.1502 31.4947 34.5092 29.0391 37.3187C26.6103 40.1282 22.0463 48.9542 21.2989 47.6025C20.3648 45.8797 21.6993 42.328 23.968 39.7836C26.1299 37.3452 28.3986 35.3838 29.9199 34.0851C32.0018 32.2828 31.4947 19.269 30.9875 14.6571C30.4537 10.0453 27.0641 -0.8746 23.6744 0.530148C20.2847 1.9349 21.5658 8.85262 19.3238 12.0597C17.1085 15.2668 15.2936 18.6859 18.0427 22.6881C20.7918 26.6903 27.4644 34.1116 25.9697 29.6058C24.4751 25.1 18.7633 22.2905 14.7598 25.6036C10.7295 28.9167 9.34163 32.9719 10.1423 36.8151C10.9431 40.6583 11.6904 45.9327 15.6139 44.1304C19.5374 42.328 25.8897 36.232 22.5267 34.0321C19.1637 31.8322 17.1085 33.3695 18.79 35.1718C20.4715 36.9741 25.9431 36.179 27.8381 33.1574C29.7331 30.1624 27.8915 13.862 25.1423 13.2524C22.3932 12.6428 23.5676 21.2568 24.9288 24.1723C26.3167 27.0878 28.2117 33.396 29.573 33.0779C30.9609 32.7864 32.1085 31.7527 33.4964 31.9382C34.8843 32.1237 34.5107 33.9791 32.8292 34.1911C31.1477 34.4031 32.0018 32.5478 32.4288 31.5406C32.8559 30.5335 38.3541 26.2397 41.21 24.7554C44.0925 23.2447 45.2669 21.7604 44.5196 21.0448C43.7722 20.3557 42.8381 21.2568 42.5178 22.2375" stroke="url(#paint0_linear_32_10881)" stroke-miterlimit="10"/>
<path d="M18.2562 9.5152C18.4964 7.58036 12.758 -2.9155 8.11389 1.19273C3.46976 5.30096 8.22065 9.62122 5.25802 13.6234C2.29538 17.6256 4.61745 20.6472 10.3292 24.0398C16.0409 27.4589 19.9644 30.1359 19.9644 28.7576C19.9377 27.3529 14.1459 25.8421 7.15303 25.9481C0.160149 26.0541 -1.52134 32.2562 2.18862 37.0801C5.89859 41.8774 10.6762 46.3567 15.6406 42.9376C18.9502 40.6582 20.7918 38.7234 20.605 38.0608C20.4982 37.7162 19.1103 38.2463 17.9093 38.6969C13.9057 40.2341 6.59253 41.8774 7.15303 32.9188C7.44663 28.095 13.9324 29.0227 17.5089 30.1889C19.8843 30.9575 23.1406 30.9045 19.9644 26.7963C16.7883 22.688 14.4662 21.3893 14.9733 17.3871C15.5071 13.4114 18.016 11.4766 18.2562 9.5152Z" stroke="url(#paint1_linear_32_10881)" stroke-miterlimit="10"/>
</g>
<defs>
<linearGradient id="paint0_linear_32_10881" x1="27.3322" y1="0.406372" x2="27.3322" y2="47.7423" gradientUnits="userSpaceOnUse">
<stop stop-color="#D0AE3B"/>
<stop offset="1" stop-color="#FFA781"/>
</linearGradient>
<linearGradient id="paint1_linear_32_10881" x1="10.7772" y1="0.247437" x2="10.7772" y2="44.1398" gradientUnits="userSpaceOnUse">
<stop stop-color="#D0AE3B"/>
<stop offset="1" stop-color="#FFA781"/>
</linearGradient>
<clipPath id="clip0_32_10881">
<rect width="45" height="48" fill="white" transform="matrix(-1 0 0 1 45 0)"/>
</clipPath>
</defs>
</svg>
