<svg width="45" height="48" viewBox="0 0 45 48" fill="none" xmlns="http://www.w3.org/2000/svg">
<g clip-path="url(#clip0_32_11073)">
<path d="M7.87367 18.9509C7.87367 18.9509 7.2331 17.7317 6.379 18.2618C5.52491 18.7654 5.92527 20.0376 6.72598 21.1508C7.52669 22.264 10.3292 23.4037 12.1441 27.777C13.9591 32.1502 13.5053 34.5092 15.9609 37.3187C18.3897 40.1282 22.9537 48.9542 23.7011 47.6025C24.6352 45.8797 23.3007 42.328 21.032 39.7836C18.8701 37.3452 16.6014 35.3838 15.0801 34.0851C12.9982 32.2828 13.5053 19.269 14.0125 14.6571C14.5463 10.0453 17.9359 -0.8746 21.3256 0.530148C24.7153 1.9349 23.4342 8.85262 25.6762 12.0597C27.8915 15.2668 29.7064 18.6859 26.9573 22.6881C24.2082 26.6903 17.5356 34.1116 19.0302 29.6058C20.5249 25.1 26.2367 22.2905 30.2402 25.6036C34.2705 28.9167 35.6584 32.9719 34.8577 36.8151C34.0569 40.6583 33.3096 45.9327 29.3861 44.1304C25.4626 42.328 19.1103 36.232 22.4733 34.0321C25.8363 31.8322 27.8915 33.3695 26.21 35.1718C24.5285 36.9741 19.0569 36.179 17.1619 33.1574C15.2669 30.1624 17.1085 13.862 19.8577 13.2524C22.6068 12.6428 21.4324 21.2568 20.0712 24.1723C18.6833 27.0878 16.7883 33.396 15.427 33.0779C14.0391 32.7864 12.8915 31.7527 11.5036 31.9382C10.1157 32.1237 10.4893 33.9791 12.1708 34.1911C13.8523 34.4031 12.9982 32.5478 12.5712 31.5406C12.1441 30.5335 6.64591 26.2397 3.79004 24.7554C0.907474 23.2447 -0.266903 21.7604 0.480428 21.0448C1.22776 20.3557 2.16192 21.2568 2.48221 22.2375" stroke="url(#paint0_linear_32_11073)" stroke-miterlimit="10"/>
<path d="M26.7438 9.5152C26.5036 7.58036 32.242 -2.9155 36.8861 1.19273C41.5302 5.30096 36.7794 9.62122 39.742 13.6234C42.7046 17.6256 40.3826 20.6472 34.6708 24.0398C28.9591 27.4589 25.0356 30.1359 25.0356 28.7576C25.0623 27.3529 30.8541 25.8421 37.847 25.9481C44.8399 26.0541 46.5213 32.2562 42.8114 37.0801C39.1014 41.8774 34.3238 46.3567 29.3594 42.9376C26.0498 40.6582 24.2082 38.7234 24.395 38.0608C24.5018 37.7162 25.8897 38.2463 27.0907 38.6969C31.0943 40.2341 38.4075 41.8774 37.847 32.9188C37.5534 28.095 31.0676 29.0227 27.4911 30.1889C25.1157 30.9575 21.8594 30.9045 25.0356 26.7963C28.2117 22.688 30.5338 21.3893 30.0267 17.3871C29.4929 13.4114 26.984 11.4766 26.7438 9.5152Z" stroke="url(#paint1_linear_32_11073)" stroke-miterlimit="10"/>
</g>
<defs>
<linearGradient id="paint0_linear_32_11073" x1="17.6678" y1="0.406372" x2="17.6678" y2="47.7423" gradientUnits="userSpaceOnUse">
<stop stop-color="#D0AE3B"/>
<stop offset="1" stop-color="#FFA781"/>
</linearGradient>
<linearGradient id="paint1_linear_32_11073" x1="34.2228" y1="0.247437" x2="34.2228" y2="44.1398" gradientUnits="userSpaceOnUse">
<stop stop-color="#D0AE3B"/>
<stop offset="1" stop-color="#FFA781"/>
</linearGradient>
<clipPath id="clip0_32_11073">
<rect width="45" height="48" fill="white"/>
</clipPath>
</defs>
</svg>
