<svg width="36" height="36" viewBox="0 0 36 36" fill="none" xmlns="http://www.w3.org/2000/svg">
<path d="M7.89412 8.20125C9.35325 8.20125 9.79087 9 9.79087 9L9.89662 6.9435C9.98437 5.8635 11.2466 4.79138 12.429 4.79138C14.0445 4.79138 14.6599 5.95913 14.6599 5.95913C14.5541 3.48075 15.4507 2.24213 17.6749 2.24213C19.476 2.35463 20.2174 4.06913 20.0745 5.95913C20.0745 5.95913 20.8305 4.482 22.9207 4.66875C24.0986 4.77338 25.0492 5.95913 25.0492 7.94475L24.8377 16.5938C24.8377 16.5938 26.1765 14.6554 27.1755 14.0805C28.1745 13.5045 29.8237 13.5405 30.6394 14.4068C31.5967 15.4249 31.7711 17.0201 31.0837 17.9921C28.512 21.3041 26.0505 24.9964 25.2945 26.5253C23.2785 30.6056 20.1982 33.7579 16.0751 33.7579C11.0745 33.7579 6.453 30.0938 5.90625 23.4135C5.3595 16.7344 5.28975 11.2601 5.28975 11.2601C5.19975 10.0823 6.12562 8.20125 7.89412 8.20125Z" fill="#FFD7C2"/>
<path d="M15.696 5.06138L16.2934 13.806C16.3037 13.9549 16.2544 14.1018 16.1564 14.2143C16.0584 14.3269 15.9197 14.3959 15.7708 14.4062C15.6219 14.4165 15.475 14.3672 15.3625 14.2692C15.2499 14.1712 15.1809 14.0325 15.1706 13.8836L14.6261 5.90063L14.6599 5.95913C14.5609 3.62025 15.3517 2.38613 17.3104 2.2545V2.268C16.7737 2.2635 16.3721 2.5155 16.0909 2.98238C15.7961 3.47063 15.6397 4.19738 15.696 5.06138ZM20.0745 5.95913C20.0815 5.86174 20.0864 5.76422 20.0891 5.66663C19.907 6.23251 19.8073 6.82169 19.7932 7.416V7.425L19.6526 14.3325C19.6495 14.4817 19.7057 14.626 19.809 14.7337C19.9123 14.8414 20.0541 14.9037 20.2033 14.9068C20.3525 14.9099 20.4968 14.8537 20.6045 14.7504C20.7122 14.6471 20.7745 14.5053 20.7776 14.3561L20.9182 7.452C20.9475 6.5835 21.1466 5.8545 21.4684 5.36063C21.735 4.95113 22.0792 4.70813 22.5169 4.653C20.7315 4.6755 20.0745 5.95913 20.0745 5.95913ZM11.2905 19.827C12.5989 19.7336 14.616 19.611 16.6567 19.7055C18.0427 19.7696 19.3984 19.9328 20.538 20.2523C19.9642 20.4435 19.2724 20.7068 18.5197 21.0544C16.4722 22.0016 13.9365 23.6014 12.0679 26.2035C12.0223 26.2633 11.9893 26.3317 11.9706 26.4045C11.952 26.4773 11.9481 26.5532 11.9593 26.6275C11.9704 26.7019 11.9963 26.7732 12.0355 26.8374C12.0747 26.9015 12.1264 26.9572 12.1875 27.001C12.2485 27.0449 12.3178 27.076 12.3911 27.0927C12.4644 27.1093 12.5403 27.1111 12.6143 27.0978C12.6883 27.0846 12.759 27.0567 12.822 27.0158C12.885 26.9748 12.9392 26.9216 12.9814 26.8594C14.6981 24.4688 17.0494 22.9748 18.9922 22.0759C19.7838 21.7091 20.6003 21.399 21.4357 21.1478C21.7366 21.0573 22.0405 20.9774 22.347 20.9081L22.392 20.898L22.4032 20.8958H22.4044C22.5179 20.8738 22.6219 20.8174 22.7022 20.7342C22.7825 20.651 22.8353 20.5451 22.8532 20.4308C22.8712 20.3166 22.8535 20.1996 22.8025 20.0958C22.7516 19.992 22.6699 19.9064 22.5686 19.8506C21.0139 18.9979 18.7976 18.6784 16.7085 18.5816C14.598 18.4838 12.5269 18.6109 11.2095 18.7054C11.0638 18.7201 10.9296 18.791 10.8354 18.9031C10.7412 19.0151 10.6943 19.1595 10.7049 19.3056C10.7154 19.4516 10.7825 19.5878 10.8919 19.6851C11.0012 19.7825 11.1442 19.8334 11.2905 19.827ZM9.79199 8.9775L9.89662 6.9435C9.98324 5.87475 11.223 4.81275 12.3941 4.79138C11.8879 4.8735 11.5504 5.02088 11.3231 5.19188C11.1095 5.35032 10.9475 5.56831 10.8574 5.8185C10.6537 6.35513 10.6819 7.07625 10.7887 7.94475L11.7619 15.183C11.7729 15.2568 11.7692 15.332 11.7509 15.4043C11.7326 15.4766 11.7001 15.5445 11.6553 15.6042C11.6105 15.6638 11.5542 15.7139 11.4899 15.7516C11.4255 15.7893 11.3543 15.8138 11.2804 15.8238C11.2065 15.8337 11.1313 15.8288 11.0593 15.8094C10.9873 15.79 10.9198 15.7565 10.8609 15.7108C10.8019 15.6651 10.7527 15.6081 10.716 15.5432C10.6792 15.4783 10.6558 15.4067 10.647 15.3326L9.79199 8.9775Z" fill="#F3C07B"/>
</svg>
