<svg width="20" height="20" viewBox="0 0 20 20" fill="none" xmlns="http://www.w3.org/2000/svg">
<path d="M5.81583 2.56164C6.55338 2.43597 7.30973 2.47742 8.02913 2.68294C8.74853 2.88847 9.41263 3.25282 9.97249 3.74914L10.0033 3.77664L10.0317 3.75164C10.566 3.28272 11.1942 2.93313 11.8743 2.7262C12.5544 2.51928 13.2709 2.45976 13.9758 2.55164L14.1808 2.58164C15.0694 2.73506 15.9 3.12593 16.5845 3.71286C17.2691 4.29979 17.7822 5.06092 18.0695 5.91566C18.3568 6.77041 18.4076 7.68694 18.2166 8.56819C18.0255 9.44945 17.5997 10.2626 16.9842 10.9216L16.8342 11.0758L16.7942 11.11L10.5858 17.2591C10.4426 17.4009 10.2527 17.486 10.0516 17.4986C9.85038 17.5111 9.65146 17.4503 9.49166 17.3275L9.41333 17.2591L3.16916 11.0741C2.50768 10.4305 2.03724 9.61637 1.80996 8.72186C1.58268 7.82735 1.60741 6.88738 1.88143 6.00607C2.15544 5.12475 2.66804 4.33647 3.36246 3.72853C4.05688 3.12059 4.90602 2.71672 5.81583 2.56164Z" fill="#F62F79"/>
</svg>
