<svg width="46" height="46" viewBox="0 0 46 46" fill="none" xmlns="http://www.w3.org/2000/svg">
<path fill-rule="evenodd" clip-rule="evenodd" d="M9.58334 1.91669C7.55001 1.91669 5.59997 2.72442 4.16219 4.1622C2.72441 5.59998 1.91667 7.55003 1.91667 9.58335V36.4167C1.91667 38.45 2.72441 40.4001 4.16219 41.8378C5.59997 43.2756 7.55001 44.0834 9.58334 44.0834H36.4167C38.45 44.0834 40.4 43.2756 41.8378 41.8378C43.2756 40.4001 44.0833 38.45 44.0833 36.4167V9.58335C44.0833 7.55003 43.2756 5.59998 41.8378 4.1622C40.4 2.72442 38.45 1.91669 36.4167 1.91669H9.58334ZM7.66667 20.9089C7.66667 13.8499 14.6759 8.36435 23 8.36435C31.3241 8.36435 38.3333 13.8499 38.3333 20.9089C38.3333 27.968 31.3241 33.4535 23 33.4535C22.3561 33.454 21.7125 33.422 21.0718 33.3577L14.306 37.5322C14.1919 37.6025 14.06 37.6385 13.926 37.6358C13.7921 37.6332 13.6617 37.592 13.5505 37.5172C13.4393 37.4424 13.352 37.3371 13.2991 37.214C13.2461 37.0909 13.2297 36.9552 13.2518 36.823L14.2025 31.188C10.2944 28.9455 7.66667 25.2061 7.66667 20.9089ZM12.5446 17.1619C12.2904 17.1619 12.0467 17.2628 11.8669 17.4425C11.6872 17.6223 11.5863 17.866 11.5863 18.1202C11.5863 18.3744 11.6872 18.6181 11.8669 18.7978C12.0467 18.9776 12.2904 19.0785 12.5446 19.0785H13.6773V24.3934C13.6773 24.6476 13.7783 24.8914 13.958 25.0711C14.1378 25.2508 14.3815 25.3518 14.6357 25.3518C14.8898 25.3518 15.1336 25.2508 15.3133 25.0711C15.493 24.8914 15.594 24.6476 15.594 24.3934V19.0785H16.7268C16.9809 19.0785 17.2247 18.9776 17.4044 18.7978C17.5841 18.6181 17.6851 18.3744 17.6851 18.1202C17.6851 17.866 17.5841 17.6223 17.4044 17.4425C17.2247 17.2628 16.9809 17.1619 16.7268 17.1619H12.5446ZM20.7575 17.7752C20.6875 17.5952 20.5648 17.4406 20.4054 17.3316C20.246 17.2225 20.0574 17.1642 19.8643 17.1642C19.6712 17.1642 19.4826 17.2225 19.3233 17.3316C19.1639 17.4406 19.0412 17.5952 18.9712 17.7752L16.5313 24.0465C16.4446 24.2822 16.454 24.5426 16.5573 24.7715C16.6606 25.0004 16.8497 25.1795 17.0838 25.2705C17.3179 25.3614 17.5783 25.3568 17.8091 25.2577C18.0398 25.1585 18.2224 24.9728 18.3176 24.7404L18.6223 23.9584H21.1063L21.4092 24.7404C21.4531 24.8599 21.5204 24.9694 21.6071 25.0626C21.6939 25.1558 21.7983 25.2308 21.9144 25.2832C22.0304 25.3356 22.1557 25.3643 22.283 25.3677C22.4103 25.3711 22.537 25.3491 22.6556 25.303C22.7743 25.2569 22.8826 25.1876 22.9742 25.0992C23.0658 25.0108 23.1389 24.905 23.1892 24.788C23.2394 24.6711 23.2659 24.5452 23.267 24.4179C23.268 24.2906 23.2438 24.1643 23.1955 24.0465L20.7575 17.7752ZM19.8643 20.7652L20.3608 22.0417H19.3679L19.8643 20.7652ZM25.3518 18.1202C25.3518 17.866 25.2508 17.6223 25.0711 17.4425C24.8913 17.2628 24.6476 17.1619 24.3934 17.1619C24.1393 17.1619 23.8955 17.2628 23.7158 17.4425C23.5361 17.6223 23.4351 17.866 23.4351 18.1202V24.3934C23.4351 24.6476 23.5361 24.8914 23.7158 25.0711C23.8955 25.2508 24.1393 25.3518 24.3934 25.3518H27.1822C27.4363 25.3518 27.6801 25.2508 27.8598 25.0711C28.0395 24.8914 28.1405 24.6476 28.1405 24.3934C28.1405 24.1393 28.0395 23.8955 27.8598 23.7158C27.6801 23.5361 27.4363 23.4351 27.1822 23.4351H25.3518V18.1202ZM29.2733 17.1619C29.5274 17.1619 29.7712 17.2628 29.9509 17.4425C30.1306 17.6223 30.2316 17.866 30.2316 18.1202V19.9889L32.775 17.4436C32.8634 17.3521 32.9692 17.2791 33.0861 17.2288C33.203 17.1786 33.3288 17.1522 33.456 17.1511C33.5832 17.15 33.7094 17.1742 33.8272 17.2224C33.945 17.2706 34.052 17.3417 34.142 17.4317C34.2319 17.5217 34.3031 17.6287 34.3513 17.7465C34.3995 17.8643 34.4237 17.9905 34.4226 18.1177C34.4215 18.2449 34.3951 18.3707 34.3449 18.4876C34.2946 18.6045 34.2216 18.7103 34.1301 18.7987L31.9489 20.9799L34.201 23.7954C34.3506 23.9945 34.4168 24.244 34.3856 24.491C34.3544 24.738 34.2283 24.9632 34.034 25.1189C33.8397 25.2746 33.5925 25.3486 33.3446 25.3251C33.0967 25.3017 32.8677 25.1827 32.706 24.9934L30.5843 22.3445L30.2297 22.6991V24.3934C30.2297 24.6476 30.1287 24.8914 29.949 25.0711C29.7693 25.2508 29.5255 25.3518 29.2713 25.3518C29.0172 25.3518 28.7734 25.2508 28.5937 25.0711C28.414 24.8914 28.313 24.6476 28.313 24.3934V18.1202C28.313 17.866 28.414 17.6223 28.5937 17.4425C28.7734 17.2628 29.0191 17.1619 29.2733 17.1619Z" fill="#FAE100"/>
</svg>
