<svg width="32" height="32" viewBox="0 0 32 32" fill="none" xmlns="http://www.w3.org/2000/svg">
<path d="M16.05 4.45H15.95C3.45 4.45 1 8.85 1 15.75L1.45 20.45H30.6L31.05 15.75C31 8.85 28.55 4.45 16.05 4.45Z" fill="#748A93"/>
<path d="M29.25 18.4C24.7 16.6 28.25 11.65 28.4 10.65C28.4 10.65 27.35 1 16 1C4.65 1 3.6 10.65 3.6 10.65C3.75 11.65 7.35 16.6 2.75 18.4C2.75 18.4 1.05 18.2 1.05 20.25C1.05 22.7 2.8 22.3 2.8 22.3C2.8 26.05 6.5 31 16 31C25.5 31 29.2 26.05 29.2 22.3C29.2 22.3 30.95 22.7 30.95 20.25C30.95 18.2 29.25 18.4 29.25 18.4Z" fill="#FFE1BD"/>
<path d="M20.35 26.45C20.45 26.45 20.5 26 20.5 25.8C20.5 24.5 18.5 23.4 16 23.4C13.5 23.4 11.5 24.55 11.5 25.85C11.5 26 11.55 26.45 11.6 26.45H20.35ZM8.8 4.9C9.95 4.55 11.15 4.15 12.35 3.9C13.55 3.65 14.8 3.45 16 3.4C17.25 3.35 18.5 3.45 19.7 3.7C20.9 3.95 22.1 4.35 23.2 4.9C22 4.7 20.8 4.5 19.6 4.45C18.4 4.35 17.2 4.35 16.05 4.4C14.85 4.45 13.65 4.55 12.45 4.65C11.25 4.75 10.05 4.9 8.8 4.9ZM7.25 7C8.7 6.65 10.1 6.25 11.55 6C13 5.75 14.5 5.55 16 5.5C17.5 5.45 19 5.55 20.45 5.8C21.95 6.05 23.4 6.4 24.75 7C23.3 6.8 21.85 6.65 20.35 6.55C18.9 6.45 17.45 6.45 16 6.5C14.55 6.55 13.1 6.65 11.65 6.75C10.2 6.85 8.75 7.05 7.25 7Z" fill="#748A93"/>
<path d="M8.9 19.65L8.75 18.15C9.15 18.1 9.7 18 10.3 17.9C13.25 17.35 18.15 16.4 23.5 18.2L23 19.6C18.05 17.9 13.4 18.8 10.6 19.35C9.9 19.5 9.3 19.6 8.9 19.65Z" fill="#454749"/>
<path d="M9.85 23.45C12.3353 23.45 14.35 21.4353 14.35 18.95C14.35 16.4647 12.3353 14.45 9.85 14.45C7.36472 14.45 5.35 16.4647 5.35 18.95C5.35 21.4353 7.36472 23.45 9.85 23.45Z" fill="#454749"/>
<path d="M9.85 21.95C11.5069 21.95 12.85 20.6069 12.85 18.95C12.85 17.2931 11.5069 15.95 9.85 15.95C8.19314 15.95 6.85 17.2931 6.85 18.95C6.85 20.6069 8.19314 21.95 9.85 21.95Z" fill="#B4D7EE"/>
<path d="M22.15 23.45C24.6353 23.45 26.65 21.4353 26.65 18.95C26.65 16.4647 24.6353 14.45 22.15 14.45C19.6647 14.45 17.65 16.4647 17.65 18.95C17.65 21.4353 19.6647 23.45 22.15 23.45Z" fill="#454749"/>
<path d="M22.15 21.95C23.8069 21.95 25.15 20.6069 25.15 18.95C25.15 17.2931 23.8069 15.95 22.15 15.95C20.4931 15.95 19.15 17.2931 19.15 18.95C19.15 20.6069 20.4931 21.95 22.15 21.95Z" fill="#B4D7EE"/>
</svg>
