<svg width="20" height="20" viewBox="0 0 20 20" fill="none" xmlns="http://www.w3.org/2000/svg">
<path fill-rule="evenodd" clip-rule="evenodd" d="M10.9 2.1156C11.1063 2.3531 11.4563 2.39685 11.7125 2.2156C12.2125 1.85935 12.8625 2.39685 12.6063 2.94685L11.0938 4.6781H8.675L7.15 2.9281C6.89375 2.37185 7.54375 1.83435 8.04375 2.1906L8.0875 2.22185C8.34375 2.4031 8.69375 2.3531 8.89375 2.1156L9.4375 1.4656C9.49351 1.39808 9.56371 1.34374 9.64311 1.30645C9.72251 1.26915 9.80915 1.24982 9.89688 1.24982C9.9846 1.24982 10.0712 1.26915 10.1506 1.30645C10.23 1.34374 10.3002 1.39808 10.3563 1.4656L10.9 2.1156ZM2.5 13.2656C2.5 9.1781 5.8125 5.8656 9.9 5.8656C13.9875 5.8656 17.3 9.1781 17.2938 13.2656C17.2938 16.2843 14.8438 18.7343 11.825 18.7343H7.96875C4.95 18.7343 2.5 16.2843 2.5 13.2656Z" fill="#7BF395"/>
<path fill-rule="evenodd" clip-rule="evenodd" d="M8.82501 4.66559H10.975C11.3563 4.66559 11.6688 4.97809 11.6688 5.35934C11.6688 5.74059 11.3563 6.05309 10.975 6.05309H8.82501C8.44376 6.05309 8.13126 5.74059 8.13126 5.35934C8.13126 4.97809 8.44376 4.66559 8.82501 4.66559ZM9.90001 12.0906H9.94376C10.8813 12.1156 11.6313 12.8781 11.6313 13.8156C11.6313 14.6156 11.0875 15.2843 10.35 15.4843V16.1843C10.35 16.4343 10.15 16.6343 9.90001 16.6343C9.65001 16.6343 9.45001 16.4343 9.45001 16.1843V15.4843C9.08282 15.3855 8.75839 15.1685 8.52682 14.8669C8.29525 14.5653 8.16941 14.1958 8.16876 13.8156C8.16876 13.5656 8.36876 13.3656 8.61876 13.3656C8.86876 13.3656 9.06876 13.5656 9.06876 13.8156C9.06876 14.2781 9.43751 14.6468 9.89376 14.6468C10.35 14.6468 10.725 14.2718 10.725 13.8156C10.725 13.3593 10.35 12.9843 9.89376 12.9843H9.85001C9.40039 12.9721 8.97325 12.7851 8.65932 12.463C8.34539 12.1409 8.1694 11.7091 8.16876 11.2593C8.16876 10.4593 8.71251 9.79059 9.45001 9.59059V8.89059C9.45001 8.64059 9.65001 8.44059 9.90001 8.44059C10.15 8.44059 10.35 8.64059 10.35 8.89059V9.59059C11.0875 9.79059 11.6313 10.4593 11.6313 11.2593C11.6313 11.5093 11.4313 11.7093 11.1813 11.7093C10.9313 11.7093 10.7313 11.5093 10.7313 11.2593C10.7313 10.8031 10.3563 10.4281 9.90001 10.4281C9.44376 10.4281 9.06876 10.8031 9.06876 11.2593C9.06876 11.7156 9.44376 12.0906 9.90001 12.0906Z" fill="#438C6C"/>
</svg>
